<svg xmlns="http://www.w3.org/2000/svg" version="1.1" xmlns:xlink="http://www.w3.org/1999/xlink" width="1569" height="1569"><svg width="1569" height="1569" viewBox="0 0 1569 1569" fill="none" xmlns="http://www.w3.org/2000/svg">
<circle cx="784.5" cy="784.5" r="769.5" fill="#FCCDCD" stroke="#383838" stroke-width="30"></circle>
<path d="M1048.89 1198.43C1051.64 1203.48 1046.34 1209.1 1041.08 1206.73L911.369 1148.67C892.489 1140.22 876.936 1125.94 866.95 1107.94L717.73 837.769L632.275 871.438C532.153 910.881 446.335 908.51 374.767 864.374C326.552 834.624 291.288 792.037 269.079 736.559C253.788 698.455 247.703 658.909 250.771 617.867C254.256 577.806 267.103 542.745 289.364 512.685C316.306 475.769 364.156 443.75 432.915 416.63L569.393 362.853C581.773 357.955 595.919 363.059 602.213 374.712L1048.83 1198.38L1048.89 1198.43ZM482.846 520.677C387.821 558.11 355.106 613.794 384.701 687.628C403.061 733.412 429.795 763.37 464.955 777.599C500.114 791.778 541.462 789.51 588.95 770.793L640.649 750.427C653.183 745.477 658.542 730.731 652.092 719.027L531.893 501.394L482.846 520.729V520.677Z" fill="#383838"></path>
<path d="M520.113 1198.43C517.356 1203.48 522.661 1209.1 527.916 1206.73L657.631 1148.67C676.511 1140.22 692.063 1125.94 702.05 1107.94L851.27 837.769L936.724 871.438C1036.85 910.881 1122.66 908.51 1194.23 864.374C1242.45 834.624 1277.71 792.037 1299.92 736.559C1315.21 698.455 1321.3 658.909 1318.23 617.867C1314.74 577.806 1301.9 542.745 1279.64 512.685C1252.69 475.769 1204.84 443.75 1136.09 416.63L999.607 362.853C987.227 357.955 973.081 363.059 966.787 374.712L520.165 1198.38L520.113 1198.43ZM1086.15 520.677C1181.18 558.11 1213.89 613.794 1184.3 687.628C1165.94 733.412 1139.2 763.37 1104.04 777.599C1068.89 791.778 1027.54 789.51 980.05 770.793L928.351 750.427C915.817 745.477 910.458 730.731 916.908 719.027L1037.11 501.394L1086.15 520.729V520.677Z" fill="#383838"></path>
</svg><style>@media (prefers-color-scheme: light) { :root { filter: none; } }
@media (prefers-color-scheme: dark) { :root { filter: none; } }
</style></svg>