<svg viewBox="0 0 72 57" fill="none" xmlns="http://www.w3.org/2000/svg" class="responsive-svg">
  <g id="TPP SVG">
    <path id="Vector" d="M53.8072 56.4032C53.9929 56.7435 53.6356 57.122 53.2817 56.9623L44.545 53.052C43.2734 52.4825 42.2259 51.5206 41.5533 50.3086L31.5029 32.1117L25.7473 34.3794C19.0038 37.036 13.2237 36.8763 8.40337 33.9036C5.15598 31.8999 2.78087 29.0315 1.28505 25.2949C0.255131 22.7285 -0.154735 20.065 0.0519485 17.3007C0.286657 14.6025 1.15193 12.241 2.65126 10.2164C4.46587 7.73 7.68874 5.57346 12.3198 3.74683L21.512 0.124816C22.3458 -0.20509 23.2986 0.138707 23.7225 0.923535L53.8037 56.3997L53.8072 56.4032ZM15.6828 10.7547C9.28265 13.2759 7.07919 17.0264 9.07246 21.9993C10.3091 25.083 12.1097 27.1007 14.4778 28.0591C16.8459 29.0141 19.6308 28.8613 22.8292 27.6007L26.3113 26.229C27.1555 25.8956 27.5164 24.9024 27.082 24.1141L18.9863 9.45593L15.6828 10.7582V10.7547Z" fill="#FCCDCD"/>
    <path id="Vector_2" d="M18.1928 56.4032C18.0071 56.7435 18.3644 57.122 18.7183 56.9623L27.455 53.052C28.7266 52.4825 29.7741 51.5206 30.4467 50.3086L40.4971 32.1117L46.2527 34.3794C52.9962 37.036 58.7763 36.8763 63.5966 33.9036C66.844 31.8999 69.2191 29.0315 70.715 25.2949C71.7449 22.7285 72.1547 20.065 71.9481 17.3007C71.7133 14.6025 70.8481 12.241 69.3487 10.2164C67.5341 7.73 64.3113 5.57346 59.6802 3.74683L50.488 0.124816C49.6542 -0.20509 48.7014 0.138707 48.2775 0.923535L18.1963 56.3997L18.1928 56.4032ZM56.3172 10.7547C62.7173 13.2759 64.9208 17.0264 62.9275 21.9993C61.6909 25.083 59.8903 27.1007 57.5222 28.0591C55.1541 29.0141 52.3692 28.8613 49.1708 27.6007L45.6887 26.229C44.8445 25.8956 44.4836 24.9024 44.918 24.1141L53.0137 9.45593L56.3172 10.7582V10.7547Z" fill="#FCCDCD"/>
  </g>
</svg>
